<svg width="38" height="42" viewBox="0 0 38 42" fill="none" xmlns="http://www.w3.org/2000/svg">
    <path
        d="M29.3606 29.2863H33.501V4.44431H12.7992V8.58466H29.3606V29.2863ZM29.3606 33.4267V39.6355C29.3606 40.7797 28.429 41.7074 27.2762 41.7074H2.4625C1.31136 41.7074 0.37854 40.787 0.37854 39.6355L0.383922 10.6566C0.38415 9.5123 1.31558 8.58466 2.46822 8.58466H8.65883V2.37413C8.65883 1.23079 9.58569 0.303955 10.729 0.303955H35.5712C36.7145 0.303955 37.6413 1.23079 37.6413 2.37413V31.3565C37.6413 32.4998 36.7145 33.4267 35.5712 33.4267H29.3606ZM4.5239 12.725L4.51928 37.567H25.2203V12.725H4.5239ZM8.65883 29.2863H17.9747C18.5462 29.2863 19.0097 28.823 19.0097 28.2512C19.0097 27.6796 18.5462 27.2161 17.9747 27.2161H11.7641C8.90578 27.2161 6.58865 24.8992 6.58865 22.0407C6.58865 19.1824 8.90578 16.8653 11.7641 16.8653H12.7992V14.7952H16.9396V16.8653H21.0799V21.0056H11.7641C11.1924 21.0056 10.729 21.4691 10.729 22.0407C10.729 22.6125 11.1924 23.0758 11.7641 23.0758H17.9747C20.8329 23.0758 23.1501 25.3929 23.1501 28.2512C23.1501 31.1097 20.8329 33.4267 17.9747 33.4267H16.9396V35.4968H12.7992V33.4267H8.65883V29.2863Z"
        fill="white" />
</svg>