<svg width="42" height="42" viewBox="0 0 42 42" fill="none" xmlns="http://www.w3.org/2000/svg">
<path d="M21.0101 23.0761C24.44 23.0761 27.2207 25.8568 27.2207 29.2866C27.2207 31.0444 26.4903 32.6318 25.3165 33.7617L21.3623 37.5665L27.2207 37.5673V41.7077H14.7996L14.7977 38.1379L22.4456 30.7784C22.8371 30.401 23.0803 29.8723 23.0803 29.2866C23.0803 28.1433 22.1535 27.2165 21.0101 27.2165C19.8668 27.2165 18.94 28.1433 18.94 29.2866H14.7996C14.7996 25.8568 17.5801 23.0761 21.0101 23.0761ZM33.4312 23.0761V31.3568H37.5715V23.0761H41.7119V41.7077H37.5715V35.4972H29.2908V23.0761H33.4312ZM4.4487 21.0059C4.4487 26.2364 6.87337 30.9005 10.66 33.9356L10.6593 38.9382C4.47147 35.3587 0.30835 28.6685 0.30835 21.0059H4.4487ZM21.0101 0.304199C31.7446 0.304199 40.5708 8.47439 41.6096 18.9356L37.4434 18.936C36.4247 10.7663 29.4556 4.44455 21.0101 4.44455C15.3176 4.44455 10.2958 7.31657 7.3149 11.6907L12.7294 11.6902V15.8305H0.30835V3.40946H4.4487L4.44847 8.58318C8.2254 3.55593 14.238 0.304199 21.0101 0.304199Z" fill="white"/>
</svg>
